SplineFontDB: 3.0
FontName: Braille-long-rotate-cs
FullName: Braille-long-rotate-cs
FamilyName: Braille-long-rotate-cs
Weight: Medium
Copyright: Created by Timothy Hobbs, timothyhobbs@seznam.cz, with FontForge 2.0 (http://fontforge.sf.net)
UComments: "2011-10-7: Created." 
Version: 001.000
ItalicAngle: 0
UnderlinePosition: -100
UnderlineWidth: 50
Ascent: 800
Descent: 200
LayerCount: 2
Layer: 0 0 "Back"  1
Layer: 1 0 "Fore"  0
NeedsXUIDChange: 1
XUID: [1021 538 1776246111 13783195]
OS2Version: 0
OS2_WeightWidthSlopeOnly: 0
OS2_UseTypoMetrics: 1
CreationTime: 1317976788
ModificationTime: 1317981807
OS2TypoAscent: 0
OS2TypoAOffset: 1
OS2TypoDescent: 0
OS2TypoDOffset: 1
OS2TypoLinegap: 0
OS2WinAscent: 0
OS2WinAOffset: 1
OS2WinDescent: 0
OS2WinDOffset: 1
HheadAscent: 0
HheadAOffset: 1
HheadDescent: 0
HheadDOffset: 1
OS2Vendor: 'PfEd'
MarkAttachClasses: 1
DEI: 91125
Encoding: UnicodeFull
UnicodeInterp: none
NameList: Adobe Glyph List
DisplaySize: -96
AntiAlias: 1
FitToEm: 1
WinInfo: 350 10 5
BeginPrivate: 0
EndPrivate
BeginChars: 1114112 383

StartChar: exclam
Encoding: 33 33 33
Width: 1150
VWidth: 0
Flags: HW
LayerCount: 2
Fore
SplineSet
350 102 m 5
 350 450 l 5
 1050 450 l 5
 1050 102 l 5
 1050 102 453.364 102 350 102 c 5
350 452 m 5
 350 800 l 5
 700 800 l 5
 700 452 l 5
 350 452 l 5
EndSplineSet
Validated: 524289
EndChar

StartChar: quotedbl
Encoding: 34 34 34
Width: 1150
VWidth: 0
Flags: HW
LayerCount: 2
Fore
SplineSet
350 800 m 5
 1050 800 l 5
 1050 102 l 5
 350 102 l 5
 350 800 l 5
EndSplineSet
Validated: 1
EndChar

StartChar: quotesingle
Encoding: 39 39 39
Width: 1150
VWidth: 0
Flags: HW
LayerCount: 2
Fore
SplineSet
0 800 m 5
 350 800 l 5
 350 452 l 5
 0 452 l 5
 0 800 l 5
EndSplineSet
Validated: 1
EndChar

StartChar: parenleft
Encoding: 40 40 40
Width: 1150
VWidth: 0
Flags: HW
LayerCount: 2
Fore
SplineSet
1050 102 m 5
 946.636 102 350 102 350 102 c 5
 350 450 l 5
 1050 450 l 5
 1050 102 l 5
1050 452 m 5
 700 452 l 5
 700 800 l 5
 1050 800 l 5
 1050 452 l 5
EndSplineSet
Validated: 524289
EndChar

StartChar: parenright
Encoding: 41 41 41
Width: 1150
VWidth: 0
Flags: HW
LayerCount: 2
Fore
SplineSet
1050 800 m 5
 1050 452 l 5
 350 452 l 5
 350 800 l 5
 350 800 946.636 800 1050 800 c 5
1050 450 m 5
 1050 102 l 5
 700 102 l 5
 700 450 l 5
 1050 450 l 5
EndSplineSet
Validated: 524289
EndChar

StartChar: asterisk
Encoding: 42 42 42
Width: 1150
VWidth: 0
Flags: HW
LayerCount: 2
Fore
SplineSet
700 102 m 5
 700 450 l 5
 1050 450 l 5
 1050 102 l 5
 700 102 l 5
350 452 m 5
 350 800 l 5
 700 800 l 5
 700 452 l 5
 350 452 l 5
EndSplineSet
Validated: 1
EndChar

StartChar: plus
Encoding: 43 43 43
Width: 1150
VWidth: 0
Flags: HW
LayerCount: 2
Fore
SplineSet
350 800 m 5
 453.365 800 1050 800 1050 800 c 5
 1050 452 l 5
 350 452 l 5
 350 800 l 5
350 450 m 5
 700 450 l 5
 700 102 l 5
 350 102 l 5
 350 450 l 5
EndSplineSet
Validated: 524289
EndChar

StartChar: comma
Encoding: 44 44 44
Width: 1150
VWidth: 0
Flags: HW
LayerCount: 2
Fore
SplineSet
350 450 m 5
 700 450 l 5
 700 102 l 5
 350 102 l 5
 350 450 l 5
EndSplineSet
Validated: 1
EndChar

StartChar: hyphen
Encoding: 45 45 45
Width: 1150
VWidth: 0
Flags: HW
LayerCount: 2
Fore
SplineSet
700 800 m 5
 1050 800 l 5
 1050 102 l 5
 700 102 l 5
 700 800 l 5
EndSplineSet
Validated: 1
EndChar

StartChar: period
Encoding: 46 46 46
Width: 1150
VWidth: 0
Flags: HW
LayerCount: 2
Fore
SplineSet
700 450 m 5
 1050 450 l 5
 1050 102 l 5
 700 102 l 5
 700 450 l 5
EndSplineSet
Validated: 1
EndChar

StartChar: slash
Encoding: 47 47 47
Width: 1150
VWidth: 0
Flags: HW
LayerCount: 2
Fore
SplineSet
0 102 m 5
 0 800 l 5
 700 800 l 5
 700 102 l 5
 0 102 l 5
700 452 m 5
 700 800 l 5
 1050 800 l 5
 1050 452 l 5
 700 452 l 5
EndSplineSet
Validated: 5
EndChar

StartChar: zero
Encoding: 48 48 48
Width: 2300
VWidth: 0
Flags: HW
LayerCount: 2
Fore
SplineSet
700 450 m 1
 1050 450 l 1
 1050 102 l 1
 700 102 l 1
 700 450 l 1
0 800 m 1
 1050 800 l 1
 1050 452 l 1
 0 452 l 1
 0 800 l 1
1850 800 m 5
 1850 452 l 5
 1150 452 l 5
 1150 800 l 5
 1150 800 1746.63 800 1850 800 c 5
1850 450 m 5
 1850 102 l 5
 1500 102 l 5
 1500 450 l 5
 1850 450 l 5
EndSplineSet
Validated: 524289
EndChar

StartChar: one
Encoding: 49 49 49
Width: 2300
VWidth: 0
Flags: HW
LayerCount: 2
Fore
SplineSet
1150 450 m 1
 1500 450 l 1
 1500 102 l 1
 1150 102 l 1
 1150 450 l 1
700 450 m 5
 1050 450 l 5
 1050 102 l 5
 700 102 l 5
 700 450 l 5
0 800 m 5
 1050 800 l 5
 1050 452 l 5
 0 452 l 5
 0 800 l 5
EndSplineSet
Validated: 1
EndChar

StartChar: two
Encoding: 50 50 50
Width: 2300
VWidth: 0
Flags: HW
LayerCount: 2
Fore
SplineSet
700 450 m 5
 1050 450 l 5
 1050 102 l 5
 700 102 l 5
 700 450 l 5
0 800 m 5
 1050 800 l 5
 1050 452 l 5
 0 452 l 5
 0 800 l 5
1150 450 m 1
 1850 450 l 1
 1850 102 l 1
 1150 102 l 1
 1150 450 l 1
EndSplineSet
Validated: 1
EndChar

StartChar: three
Encoding: 51 51 51
Width: 2300
VWidth: 0
Flags: HW
LayerCount: 2
Fore
SplineSet
700 450 m 5
 1050 450 l 5
 1050 102 l 5
 700 102 l 5
 700 450 l 5
0 800 m 5
 1050 800 l 5
 1050 452 l 5
 0 452 l 5
 0 800 l 5
1150 800 m 1
 1500 800 l 1
 1500 102 l 1
 1150 102 l 1
 1150 800 l 1
EndSplineSet
Validated: 1
EndChar

StartChar: four
Encoding: 52 52 52
Width: 2300
VWidth: 0
Flags: HW
LayerCount: 2
Fore
SplineSet
700 450 m 5
 1050 450 l 5
 1050 102 l 5
 700 102 l 5
 700 450 l 5
0 800 m 5
 1050 800 l 5
 1050 452 l 5
 0 452 l 5
 0 800 l 5
1150 800 m 1
 1253.37 800 1850 800 1850 800 c 1
 1850 452 l 1
 1150 452 l 1
 1150 800 l 1
1150 450 m 1
 1500 450 l 1
 1500 102 l 1
 1150 102 l 1
 1150 450 l 1
EndSplineSet
Validated: 524289
EndChar

StartChar: five
Encoding: 53 53 53
Width: 2300
VWidth: 0
Flags: HW
LayerCount: 2
Fore
SplineSet
700 450 m 5
 1050 450 l 5
 1050 102 l 5
 700 102 l 5
 700 450 l 5
0 800 m 5
 1050 800 l 5
 1050 452 l 5
 0 452 l 5
 0 800 l 5
1500 800 m 1
 1850 800 l 1
 1850 452 l 1
 1500 452 l 1
 1500 800 l 1
1150 450 m 1
 1500 450 l 1
 1500 102 l 1
 1150 102 l 1
 1150 450 l 1
EndSplineSet
Validated: 1
EndChar

StartChar: six
Encoding: 54 54 54
Width: 2300
VWidth: 0
Flags: HW
LayerCount: 2
Fore
SplineSet
700 450 m 5
 1050 450 l 5
 1050 102 l 5
 700 102 l 5
 700 450 l 5
0 800 m 5
 1050 800 l 5
 1050 452 l 5
 0 452 l 5
 0 800 l 5
1150 102 m 1
 1150 450 l 1
 1850 450 l 1
 1850 102 l 1
 1850 102 1253.36 102 1150 102 c 1
1150 452 m 1
 1150 800 l 1
 1500 800 l 1
 1500 452 l 1
 1150 452 l 1
EndSplineSet
Validated: 524289
EndChar

StartChar: seven
Encoding: 55 55 55
Width: 2300
VWidth: 0
Flags: HW
LayerCount: 2
Fore
SplineSet
700 450 m 5
 1050 450 l 5
 1050 102 l 5
 700 102 l 5
 700 450 l 5
0 800 m 5
 1050 800 l 5
 1050 452 l 5
 0 452 l 5
 0 800 l 5
1150 800 m 1
 1850 800 l 1
 1850 102 l 1
 1150 102 l 1
 1150 800 l 1
EndSplineSet
Validated: 1
EndChar

StartChar: eight
Encoding: 56 56 56
Width: 2300
VWidth: 0
Flags: HW
LayerCount: 2
Fore
SplineSet
700 450 m 5
 1050 450 l 5
 1050 102 l 5
 700 102 l 5
 700 450 l 5
0 800 m 5
 1050 800 l 5
 1050 452 l 5
 0 452 l 5
 0 800 l 5
1850 102 m 1
 1746.64 102 1150 102 1150 102 c 1
 1150 450 l 1
 1850 450 l 1
 1850 102 l 1
1850 452 m 1
 1500 452 l 1
 1500 800 l 1
 1850 800 l 1
 1850 452 l 1
EndSplineSet
Validated: 524289
EndChar

StartChar: nine
Encoding: 57 57 57
Width: 2300
VWidth: 0
Flags: HW
LayerCount: 2
Fore
SplineSet
700 450 m 5
 1050 450 l 5
 1050 102 l 5
 700 102 l 5
 700 450 l 5
0 800 m 5
 1050 800 l 5
 1050 452 l 5
 0 452 l 5
 0 800 l 5
1500 102 m 1
 1500 450 l 1
 1850 450 l 1
 1850 102 l 1
 1500 102 l 1
1150 452 m 1
 1150 800 l 1
 1500 800 l 1
 1500 452 l 1
 1150 452 l 1
EndSplineSet
Validated: 1
EndChar

StartChar: colon
Encoding: 58 58 58
Width: 1150
VWidth: 0
Flags: HW
LayerCount: 2
Fore
SplineSet
350 800 m 5
 700 800 l 5
 700 102 l 1
 350 102 l 1
 350 800 l 5
EndSplineSet
Validated: 1
EndChar

StartChar: semicolon
Encoding: 59 59 59
Width: 1150
VWidth: 0
Flags: HW
LayerCount: 2
Fore
SplineSet
350 450 m 1
 1050 450 l 5
 1050 102 l 5
 350 102 l 1
 350 450 l 1
EndSplineSet
Validated: 1
EndChar

StartChar: question
Encoding: 63 63 63
Width: 1150
VWidth: 0
Flags: HW
LayerCount: 2
Fore
SplineSet
700 800 m 5
 1050 800 l 5
 1050 452 l 5
 700 452 l 5
 700 800 l 5
350 450 m 5
 700 450 l 5
 700 102 l 5
 350 102 l 5
 350 450 l 5
EndSplineSet
Validated: 1
EndChar

StartChar: A
Encoding: 65 65 65
Width: 2300
VWidth: 0
Flags: HW
LayerCount: 2
Fore
SplineSet
700 800 m 5
 1050 800 l 5
 1050 452 l 5
 700 452 l 5
 700 800 l 5
1150 450 m 1
 1500 450 l 1
 1500 102 l 1
 1150 102 l 1
 1150 450 l 1
EndSplineSet
Validated: 1
EndChar

StartChar: B
Encoding: 66 66 66
Width: 2300
VWidth: 0
Flags: HW
LayerCount: 2
Fore
SplineSet
700 800 m 5
 1050 800 l 5
 1050 452 l 5
 700 452 l 5
 700 800 l 5
1150 450 m 1
 1850 450 l 1
 1850 102 l 1
 1150 102 l 1
 1150 450 l 1
EndSplineSet
Validated: 1
EndChar

StartChar: C
Encoding: 67 67 67
Width: 2300
VWidth: 0
Flags: HW
LayerCount: 2
Fore
SplineSet
700 800 m 5
 1050 800 l 5
 1050 452 l 5
 700 452 l 5
 700 800 l 5
1150 800 m 1
 1500 800 l 1
 1500 102 l 1
 1150 102 l 1
 1150 800 l 1
EndSplineSet
Validated: 1
EndChar

StartChar: D
Encoding: 68 68 68
Width: 2300
VWidth: 0
Flags: HW
LayerCount: 2
Fore
SplineSet
700 800 m 5
 1050 800 l 5
 1050 452 l 5
 700 452 l 5
 700 800 l 5
1150 800 m 1
 1253.37 800 1850 800 1850 800 c 1
 1850 452 l 1
 1150 452 l 1
 1150 800 l 1
1150 450 m 1
 1500 450 l 1
 1500 102 l 1
 1150 102 l 1
 1150 450 l 1
EndSplineSet
Validated: 524289
EndChar

StartChar: E
Encoding: 69 69 69
Width: 2300
VWidth: 0
Flags: HW
LayerCount: 2
Fore
SplineSet
700 800 m 5
 1050 800 l 5
 1050 452 l 5
 700 452 l 5
 700 800 l 5
1500 800 m 1
 1850 800 l 1
 1850 452 l 1
 1500 452 l 1
 1500 800 l 1
1150 450 m 1
 1500 450 l 1
 1500 102 l 1
 1150 102 l 1
 1150 450 l 1
EndSplineSet
Validated: 1
EndChar

StartChar: F
Encoding: 70 70 70
Width: 2300
VWidth: 0
Flags: HW
LayerCount: 2
Fore
SplineSet
700 800 m 5
 1050 800 l 5
 1050 452 l 5
 700 452 l 5
 700 800 l 5
1150 102 m 1
 1150 450 l 1
 1850 450 l 1
 1850 102 l 1
 1850 102 1253.36 102 1150 102 c 1
1150 452 m 1
 1150 800 l 1
 1500 800 l 1
 1500 452 l 1
 1150 452 l 1
EndSplineSet
Validated: 524289
EndChar

StartChar: G
Encoding: 71 71 71
Width: 2300
VWidth: 0
Flags: HW
LayerCount: 2
Fore
SplineSet
700 800 m 5
 1050 800 l 5
 1050 452 l 5
 700 452 l 5
 700 800 l 5
1150 800 m 1
 1850 800 l 1
 1850 102 l 1
 1150 102 l 1
 1150 800 l 1
EndSplineSet
Validated: 1
EndChar

StartChar: H
Encoding: 72 72 72
Width: 2300
VWidth: 0
Flags: HW
LayerCount: 2
Fore
SplineSet
700 800 m 5
 1050 800 l 5
 1050 452 l 5
 700 452 l 5
 700 800 l 5
1850 102 m 1
 1746.64 102 1150 102 1150 102 c 1
 1150 450 l 1
 1850 450 l 1
 1850 102 l 1
1850 452 m 1
 1500 452 l 1
 1500 800 l 1
 1850 800 l 1
 1850 452 l 1
EndSplineSet
Validated: 524289
EndChar

StartChar: I
Encoding: 73 73 73
Width: 2300
VWidth: 0
Flags: HW
LayerCount: 2
Fore
SplineSet
700 800 m 5
 1050 800 l 5
 1050 452 l 5
 700 452 l 5
 700 800 l 5
1500 102 m 1
 1500 450 l 1
 1850 450 l 1
 1850 102 l 1
 1500 102 l 1
1150 452 m 1
 1150 800 l 1
 1500 800 l 1
 1500 452 l 1
 1150 452 l 1
EndSplineSet
Validated: 1
EndChar

StartChar: J
Encoding: 74 74 74
Width: 2300
VWidth: 0
Flags: HW
LayerCount: 2
Fore
SplineSet
700 800 m 5
 1050 800 l 5
 1050 452 l 5
 700 452 l 5
 700 800 l 5
1850 800 m 1
 1850 452 l 1
 1150 452 l 1
 1150 800 l 1
 1150 800 1746.64 800 1850 800 c 1
1850 450 m 1
 1850 102 l 1
 1500 102 l 1
 1500 450 l 1
 1850 450 l 1
EndSplineSet
Validated: 524289
EndChar

StartChar: K
Encoding: 75 75 75
Width: 2300
VWidth: 0
Flags: HW
LayerCount: 2
Fore
SplineSet
700 800 m 5
 1050 800 l 5
 1050 452 l 5
 700 452 l 5
 700 800 l 5
1850 450 m 1
 2200 450 l 1
 2200 102 l 1
 1850 102 l 1
 1850 450 l 1
1150 450 m 1
 1500 450 l 1
 1500 102 l 1
 1150 102 l 1
 1150 450 l 1
EndSplineSet
Validated: 1
EndChar

StartChar: L
Encoding: 76 76 76
Width: 2300
VWidth: 0
Flags: HW
LayerCount: 2
Fore
SplineSet
700 800 m 5
 1050 800 l 5
 1050 452 l 5
 700 452 l 5
 700 800 l 5
1150 450 m 1
 2200 450 l 1
 2200 102 l 1
 1150 102 l 1
 1150 450 l 1
EndSplineSet
Validated: 1
EndChar

StartChar: M
Encoding: 77 77 77
Width: 2300
VWidth: 0
Flags: HW
LayerCount: 2
Fore
SplineSet
700 800 m 5
 1050 800 l 5
 1050 452 l 5
 700 452 l 5
 700 800 l 5
1850 450 m 1
 2200 450 l 1
 2200 102 l 1
 1850 102 l 1
 1850 450 l 1
1150 800 m 1
 1500 800 l 1
 1500 102 l 1
 1150 102 l 1
 1150 800 l 1
EndSplineSet
Validated: 1
EndChar

StartChar: N
Encoding: 78 78 78
Width: 2300
VWidth: 0
Flags: HW
LayerCount: 2
Fore
SplineSet
700 800 m 5
 1050 800 l 5
 1050 452 l 5
 700 452 l 5
 700 800 l 5
1850 450 m 1
 2200 450 l 1
 2200 102 l 1
 1850 102 l 1
 1850 450 l 1
1150 800 m 1
 1253.37 800 1850 800 1850 800 c 1
 1850 452 l 1
 1150 452 l 1
 1150 800 l 1
1150 450 m 1
 1500 450 l 1
 1500 102 l 1
 1150 102 l 1
 1150 450 l 1
EndSplineSet
Validated: 524289
EndChar

StartChar: O
Encoding: 79 79 79
Width: 2300
VWidth: 0
Flags: HW
LayerCount: 2
Fore
SplineSet
700 800 m 5
 1050 800 l 5
 1050 452 l 5
 700 452 l 5
 700 800 l 5
1150 450 m 1
 1500 450 l 1
 1500 102 l 1
 1150 102 l 1
 1150 450 l 1
1500 800 m 1
 1850 800 l 1
 1850 452 l 1
 1500 452 l 1
 1500 800 l 1
1850 450 m 1
 2200 450 l 1
 2200 102 l 1
 1850 102 l 1
 1850 450 l 1
EndSplineSet
Validated: 1
EndChar

StartChar: P
Encoding: 80 80 80
Width: 2300
VWidth: 0
Flags: HW
LayerCount: 2
Fore
SplineSet
700 800 m 5
 1050 800 l 5
 1050 452 l 5
 700 452 l 5
 700 800 l 5
1150 800 m 1
 1500 800 l 1
 1500 452 l 1
 1150 452 l 1
 1150 800 l 1
1150 450 m 1
 2200 450 l 1
 2200 102 l 1
 1150 102 l 1
 1150 450 l 1
EndSplineSet
Validated: 1
EndChar

StartChar: Q
Encoding: 81 81 81
Width: 2300
VWidth: 0
Flags: HW
LayerCount: 2
Fore
SplineSet
700 800 m 5
 1050 800 l 5
 1050 452 l 5
 700 452 l 5
 700 800 l 5
1150 800 m 1
 1850 800 l 1
 1850 102 l 1
 1150 102 l 1
 1150 800 l 1
1850 450 m 1
 1850 102 l 1
 2200 102 l 1
 2200 450 l 1
 1850 450 l 1
EndSplineSet
Validated: 5
EndChar

StartChar: R
Encoding: 82 82 82
Width: 2300
VWidth: 0
Flags: HW
LayerCount: 2
Fore
SplineSet
700 800 m 5
 1050 800 l 5
 1050 452 l 5
 700 452 l 5
 700 800 l 5
1500 800 m 1
 1850 800 l 1
 1850 452 l 1
 1500 452 l 1
 1500 800 l 1
1150 450 m 1
 2200 450 l 1
 2200 102 l 1
 1150 102 l 1
 1150 450 l 1
EndSplineSet
Validated: 1
EndChar

StartChar: S
Encoding: 83 83 83
Width: 2300
VWidth: 0
Flags: HW
LayerCount: 2
Fore
SplineSet
700 800 m 5
 1050 800 l 5
 1050 452 l 5
 700 452 l 5
 700 800 l 5
1500 450 m 1
 2200 450 l 1
 2200 102 l 1
 1500 102 l 1
 1500 450 l 1
1150 800 m 1
 1500 800 l 1
 1500 452 l 1
 1150 452 l 1
 1150 800 l 1
EndSplineSet
Validated: 1
EndChar

StartChar: T
Encoding: 84 84 84
Width: 2300
VWidth: 0
Flags: HW
LayerCount: 2
Fore
SplineSet
700 800 m 5
 1050 800 l 5
 1050 452 l 5
 700 452 l 5
 700 800 l 5
1500 450 m 1
 2200 450 l 1
 2200 102 l 1
 1500 102 l 1
 1500 450 l 1
1150 800 m 1
 1850 800 l 1
 1850 452 l 1
 1150 452 l 1
 1150 800 l 1
EndSplineSet
Validated: 1
EndChar

StartChar: U
Encoding: 85 85 85
Width: 2300
VWidth: 0
Flags: HW
LayerCount: 2
Fore
SplineSet
700 800 m 5
 1050 800 l 5
 1050 452 l 5
 700 452 l 5
 700 800 l 5
1850 800 m 1
 2200 800 l 1
 2200 102 l 1
 1850 102 l 1
 1850 800 l 1
1150 450 m 1
 1500 450 l 1
 1500 102 l 1
 1150 102 l 1
 1150 450 l 1
EndSplineSet
Validated: 1
EndChar

StartChar: V
Encoding: 86 86 86
Width: 2300
VWidth: 0
Flags: HW
LayerCount: 2
Fore
SplineSet
700 800 m 5
 1050 800 l 5
 1050 452 l 5
 700 452 l 5
 700 800 l 5
1850 800 m 1
 2200 800 l 1
 2200 452 l 1
 1850 452 l 1
 1850 800 l 1
1150 450 m 1
 2200 450 l 1
 2200 102 l 1
 1150 102 l 1
 1150 450 l 1
EndSplineSet
Validated: 1
EndChar

StartChar: W
Encoding: 87 87 87
Width: 2300
VWidth: 0
Flags: HW
LayerCount: 2
Fore
SplineSet
700 800 m 5
 1050 800 l 5
 1050 452 l 5
 700 452 l 5
 700 800 l 5
2200 800 m 1
 2200 102 l 1
 1500 102 l 1
 1500 800 l 1
 2200 800 l 1
1500 450 m 1
 1500 102 l 1
 1150 102 l 1
 1150 450 l 1
 1500 450 l 1
EndSplineSet
Validated: 5
EndChar

StartChar: X
Encoding: 88 88 88
Width: 2300
VWidth: 0
Flags: HW
LayerCount: 2
Fore
SplineSet
700 800 m 5
 1050 800 l 5
 1050 452 l 5
 700 452 l 5
 700 800 l 5
1850 800 m 1
 2200 800 l 1
 2200 102 l 1
 1850 102 l 1
 1850 800 l 1
1150 800 m 1
 1500 800 l 1
 1500 102 l 1
 1150 102 l 1
 1150 800 l 1
EndSplineSet
Validated: 1
EndChar

StartChar: Y
Encoding: 89 89 89
Width: 2300
VWidth: 0
Flags: HW
LayerCount: 2
Fore
SplineSet
700 800 m 5
 1050 800 l 5
 1050 452 l 5
 700 452 l 5
 700 800 l 5
1850 450 m 1
 2200 450 l 1
 2200 102 l 1
 1850 102 l 1
 1850 450 l 1
1150 450 m 1
 1500 450 l 1
 1500 102 l 1
 1150 102 l 1
 1150 450 l 1
1150 800 m 1
 2200 800 l 1
 2200 452 l 1
 1150 452 l 1
 1150 800 l 1
EndSplineSet
Validated: 1
EndChar

StartChar: Z
Encoding: 90 90 90
Width: 2300
VWidth: 0
Flags: HW
LayerCount: 2
Fore
SplineSet
700 800 m 5
 1050 800 l 5
 1050 452 l 5
 700 452 l 5
 700 800 l 5
1500 450 m 1
 1500 102 l 1
 1150 102 l 1
 1150 450 l 1
 1500 450 l 1
2200 800 m 1
 2200 452 l 1
 1500 452 l 1
 1500 800 l 1
 1500 800 2096.64 800 2200 800 c 1
2200 450 m 1
 2200 102 l 1
 1850 102 l 1
 1850 450 l 1
 2200 450 l 1
EndSplineSet
Validated: 524289
EndChar

StartChar: grave
Encoding: 96 96 96
Width: 1150
VWidth: 0
Flags: HW
LayerCount: 2
Fore
SplineSet
0 800 m 5
 350 800 l 5
 350 452 l 5
 0 452 l 5
 0 800 l 5
EndSplineSet
Validated: 1
EndChar

StartChar: a
Encoding: 97 97 97
Width: 1150
VWidth: 0
Flags: HW
LayerCount: 2
Fore
SplineSet
0 450 m 5
 350 450 l 5
 350 102 l 5
 0 102 l 5
 0 450 l 5
EndSplineSet
Validated: 1
EndChar

StartChar: b
Encoding: 98 98 98
Width: 1150
VWidth: 0
Flags: HW
LayerCount: 2
Fore
SplineSet
0 450 m 5
 700 450 l 5
 700 102 l 5
 0 102 l 5
 0 450 l 5
EndSplineSet
Validated: 1
EndChar

StartChar: c
Encoding: 99 99 99
Width: 1150
VWidth: 0
Flags: HW
LayerCount: 2
Fore
SplineSet
0 800 m 5
 350 800 l 5
 350 102 l 5
 0 102 l 5
 0 800 l 5
EndSplineSet
Validated: 1
EndChar

StartChar: d
Encoding: 100 100 100
Width: 1150
VWidth: 0
Flags: HW
LayerCount: 2
Fore
SplineSet
0 800 m 5
 700 800 l 5
 700 452 l 5
 0 452 l 5
 0 800 l 5
0 450 m 5
 350 450 l 5
 350 102 l 5
 0 102 l 5
 0 450 l 5
EndSplineSet
Validated: 524289
EndChar

StartChar: e
Encoding: 101 101 101
Width: 1150
VWidth: 0
Flags: HW
LayerCount: 2
Fore
SplineSet
350 800 m 5
 700 800 l 5
 700 452 l 5
 350 452 l 5
 350 800 l 5
0 450 m 5
 350 450 l 5
 350 102 l 5
 0 102 l 5
 0 450 l 5
EndSplineSet
Validated: 1
EndChar

StartChar: f
Encoding: 102 102 102
Width: 1150
VWidth: 0
Flags: HW
LayerCount: 2
Fore
SplineSet
0 102 m 5
 0 450 l 5
 700 450 l 5
 700 102 l 5
 700 102 103.364 102 0 102 c 5
0 452 m 5
 0 800 l 5
 350 800 l 5
 350 452 l 5
 0 452 l 5
EndSplineSet
Validated: 524289
EndChar

StartChar: g
Encoding: 103 103 103
Width: 1150
VWidth: 0
Flags: HW
LayerCount: 2
Fore
SplineSet
0 800 m 5
 700 800 l 5
 700 102 l 5
 0 102 l 5
 0 800 l 5
EndSplineSet
Validated: 1
EndChar

StartChar: h
Encoding: 104 104 104
Width: 1150
VWidth: 0
Flags: HW
LayerCount: 2
Fore
SplineSet
700 102 m 5
 0 102 l 5
 0 450 l 5
 700 450 l 5
 700 102 l 5
700 452 m 5
 350 452 l 5
 350 800 l 5
 700 800 l 5
 700 452 l 5
EndSplineSet
Validated: 524289
EndChar

StartChar: i
Encoding: 105 105 105
Width: 1150
VWidth: 0
Flags: HW
LayerCount: 2
Fore
SplineSet
350 102 m 5
 350 450 l 5
 700 450 l 5
 700 102 l 5
 350 102 l 5
0 452 m 5
 0 800 l 5
 350 800 l 5
 350 452 l 5
 0 452 l 5
EndSplineSet
Validated: 1
EndChar

StartChar: j
Encoding: 106 106 106
Width: 1150
VWidth: 0
Flags: HW
LayerCount: 2
Fore
SplineSet
700 800 m 5
 700 452 l 5
 0 452 l 5
 0 800 l 5
 0 800 596.636 800 700 800 c 5
700 450 m 5
 700 102 l 5
 350 102 l 5
 350 450 l 5
 700 450 l 5
EndSplineSet
Validated: 524289
EndChar

StartChar: k
Encoding: 107 107 107
Width: 1150
VWidth: 0
Flags: HW
LayerCount: 2
Fore
SplineSet
700 450 m 5
 1050 450 l 5
 1050 102 l 5
 700 102 l 5
 700 450 l 5
0 450 m 1
 350 450 l 1
 350 102 l 1
 0 102 l 1
 0 450 l 1
EndSplineSet
Validated: 1
EndChar

StartChar: l
Encoding: 108 108 108
Width: 1150
VWidth: 0
Flags: HW
LayerCount: 2
Fore
SplineSet
0 450 m 5
 1050 450 l 5
 1050 102 l 5
 0 102 l 5
 0 450 l 5
EndSplineSet
Validated: 1
EndChar

StartChar: m
Encoding: 109 109 109
Width: 1150
VWidth: 0
Flags: HW
LayerCount: 2
Fore
SplineSet
700 450 m 5
 1050 450 l 5
 1050 102 l 5
 700 102 l 5
 700 450 l 5
0 800 m 5
 350 800 l 5
 350 102 l 5
 0 102 l 5
 0 800 l 5
EndSplineSet
Validated: 1
EndChar

StartChar: n
Encoding: 110 110 110
Width: 1150
VWidth: 0
Flags: HW
LayerCount: 2
Fore
SplineSet
700 450 m 5
 1050 450 l 5
 1050 102 l 5
 700 102 l 5
 700 450 l 5
0 800 m 5
 700 800 l 5
 700 452 l 5
 0 452 l 5
 0 800 l 5
0 450 m 5
 350 450 l 5
 350 102 l 5
 0 102 l 5
 0 450 l 5
EndSplineSet
Validated: 524289
EndChar

StartChar: o
Encoding: 111 111 111
Width: 1150
VWidth: 0
Flags: HW
LayerCount: 2
Fore
SplineSet
0 450 m 5
 350 450 l 5
 350 102 l 5
 0 102 l 5
 0 450 l 5
350 800 m 5
 700 800 l 5
 700 452 l 5
 350 452 l 5
 350 800 l 5
700 450 m 5
 1050 450 l 5
 1050 102 l 5
 700 102 l 5
 700 450 l 5
EndSplineSet
Validated: 1
EndChar

StartChar: p
Encoding: 112 112 112
Width: 1150
VWidth: 0
Flags: HW
LayerCount: 2
Fore
SplineSet
0 800 m 5
 350 800 l 5
 350 452 l 5
 0 452 l 5
 0 800 l 5
0 450 m 5
 1050 450 l 5
 1050 102 l 5
 0 102 l 5
 0 450 l 5
EndSplineSet
Validated: 1
EndChar

StartChar: q
Encoding: 113 113 113
Width: 1150
VWidth: 0
Flags: HW
LayerCount: 2
Fore
SplineSet
0 800 m 1
 700 800 l 1
 700 450 l 1
 700 102 l 1
 1050 102 l 1
 1050 450 l 1
 700 450 l 1
 700 102 l 1
 0 102 l 1
 0 800 l 1
EndSplineSet
EndChar

StartChar: r
Encoding: 114 114 114
Width: 1150
VWidth: 0
Flags: HW
LayerCount: 2
Fore
SplineSet
350 800 m 5
 700 800 l 5
 700 452 l 5
 350 452 l 5
 350 800 l 5
0 450 m 5
 1050 450 l 5
 1050 102 l 5
 0 102 l 5
 0 450 l 5
EndSplineSet
Validated: 1
EndChar

StartChar: s
Encoding: 115 115 115
Width: 1150
VWidth: 0
Flags: HW
LayerCount: 2
Fore
SplineSet
350 450 m 5
 1050 450 l 5
 1050 102 l 5
 350 102 l 5
 350 450 l 5
0 800 m 5
 350 800 l 5
 350 452 l 5
 0 452 l 5
 0 800 l 5
EndSplineSet
Validated: 1
EndChar

StartChar: t
Encoding: 116 116 116
Width: 1150
VWidth: 0
Flags: HW
LayerCount: 2
Fore
SplineSet
350 450 m 5
 1050 450 l 5
 1050 102 l 5
 350 102 l 5
 350 450 l 5
0 800 m 5
 700 800 l 5
 700 452 l 5
 0 452 l 5
 0 800 l 5
EndSplineSet
Validated: 1
EndChar

StartChar: u
Encoding: 117 117 117
Width: 1150
VWidth: 0
Flags: HW
LayerCount: 2
Fore
SplineSet
700 800 m 5
 1050 800 l 5
 1050 102 l 5
 700 102 l 5
 700 800 l 5
0 450 m 5
 350 450 l 5
 350 102 l 5
 0 102 l 5
 0 450 l 5
EndSplineSet
Validated: 1
EndChar

StartChar: v
Encoding: 118 118 118
Width: 1150
VWidth: 0
Flags: HW
LayerCount: 2
Fore
SplineSet
700 800 m 5
 1050 800 l 5
 1050 452 l 5
 700 452 l 5
 700 800 l 5
0 450 m 5
 1050 450 l 5
 1050 102 l 5
 0 102 l 5
 0 450 l 5
EndSplineSet
Validated: 1
EndChar

StartChar: w
Encoding: 119 119 119
Width: 1150
VWidth: 0
Flags: HW
LayerCount: 2
Fore
SplineSet
1050 800 m 1
 1050 102 l 1
 350 102 l 1
 0 102 l 1
 0 450 l 1
 350 450 l 1
 350 800 l 1
 1050 800 l 1
EndSplineSet
EndChar

StartChar: x
Encoding: 120 120 120
Width: 1150
VWidth: 0
Flags: HW
LayerCount: 2
Fore
SplineSet
700 800 m 5
 1050 800 l 5
 1050 102 l 5
 700 102 l 5
 700 800 l 5
0 800 m 1
 350 800 l 1
 350 102 l 1
 0 102 l 1
 0 800 l 1
EndSplineSet
Validated: 1
EndChar

StartChar: y
Encoding: 121 121 121
Width: 1150
VWidth: 0
Flags: HW
LayerCount: 2
Fore
SplineSet
700 450 m 5
 1050 450 l 5
 1050 102 l 5
 700 102 l 5
 700 450 l 5
0 450 m 1
 350 450 l 1
 350 102 l 1
 0 102 l 1
 0 450 l 1
0 800 m 1
 1050 800 l 1
 1050 452 l 1
 0 452 l 1
 0 800 l 1
EndSplineSet
Validated: 1
EndChar

StartChar: z
Encoding: 122 122 122
Width: 1150
VWidth: 0
Flags: HW
LayerCount: 2
Fore
SplineSet
350 450 m 5
 350 102 l 5
 0 102 l 5
 0 450 l 5
 350 450 l 5
1050 800 m 5
 1050 452 l 5
 350 452 l 5
 350 800 l 5
 350 800 946.636 800 1050 800 c 5
1050 450 m 5
 1050 102 l 5
 700 102 l 5
 700 450 l 5
 1050 450 l 5
EndSplineSet
Validated: 524289
EndChar

StartChar: bar
Encoding: 124 124 124
Width: 1150
VWidth: 0
Flags: HW
LayerCount: 2
Fore
SplineSet
0 800 m 5
 1050 800 l 5
 1050 452 l 5
 0 452 l 5
 0 800 l 5
EndSplineSet
Validated: 1
EndChar

StartChar: aacute
Encoding: 225 225 225
Width: 1150
VWidth: 0
Flags: HW
LayerCount: 2
Fore
SplineSet
700 800 m 5
 1050 800 l 5
 1050 452 l 5
 700 452 l 5
 700 800 l 5
0 450 m 5
 350 450 l 5
 350 102 l 5
 0 102 l 5
 0 450 l 5
EndSplineSet
Validated: 1
EndChar

StartChar: eacute
Encoding: 233 233 233
Width: 1150
VWidth: 0
Flags: HW
LayerCount: 2
Fore
SplineSet
700 452 m 5
 0 452 l 5
 0 800 l 5
 700 800 l 5
 700 452 l 5
1050 102 m 5
 700 102 l 5
 700 450 l 5
 1050 450 l 5
 1050 102 l 5
EndSplineSet
Validated: 1
EndChar

StartChar: iacute
Encoding: 237 237 237
Width: 1150
VWidth: 0
Flags: HW
LayerCount: 2
Fore
SplineSet
700 102 m 5
 700 450 l 5
 1050 450 l 5
 1050 102 l 5
 700 102 l 5
0 452 m 5
 0 800 l 5
 350 800 l 5
 350 452 l 5
 0 452 l 5
EndSplineSet
Validated: 1
EndChar

StartChar: oacute
Encoding: 243 243 243
Width: 1150
VWidth: 0
Flags: HW
LayerCount: 2
Fore
SplineSet
0 452 m 5
 0 800 l 5
 350 800 l 5
 350 452 l 5
 0 452 l 5
350 102 m 5
 350 450 l 5
 700 450 l 5
 700 102 l 5
 350 102 l 5
700 452 m 5
 700 800 l 5
 1050 800 l 5
 1050 452 l 5
 700 452 l 5
EndSplineSet
Validated: 1
EndChar

StartChar: uacute
Encoding: 250 250 250
Width: 1150
VWidth: 0
Flags: HW
LayerCount: 2
Fore
SplineSet
700 102 m 5
 700 800 l 5
 1050 800 l 5
 1050 102 l 5
 700 102 l 5
0 452 m 5
 0 800 l 5
 350 800 l 5
 350 452 l 5
 0 452 l 5
EndSplineSet
Validated: 1
EndChar

StartChar: ccaron
Encoding: 269 269 269
Width: 1150
VWidth: 0
Flags: HW
LayerCount: 2
Fore
SplineSet
700 452 m 5
 700 800 l 5
 1050 800 l 5
 1050 452 l 5
 700 452 l 5
0 102 m 5
 0 800 l 5
 350 800 l 5
 350 102 l 5
 0 102 l 5
EndSplineSet
Validated: 1
EndChar

StartChar: dcaron
Encoding: 271 271 271
Width: 1150
VWidth: 0
Flags: HW
LayerCount: 2
Fore
SplineSet
0 102 m 5
 0 450 l 5
 350 450 l 5
 350 102 l 5
 0 102 l 5
0 452 m 5
 0 800 l 5
 1050 800 l 5
 1050 452 l 5
 0 452 l 5
EndSplineSet
Validated: 1
EndChar

StartChar: ecaron
Encoding: 283 283 283
Width: 1150
VWidth: 0
Flags: HW
LayerCount: 2
Fore
SplineSet
700 450 m 5
 700 102 l 5
 0 102 l 5
 0 450 l 5
 700 450 l 5
1050 800 m 5
 1050 452 l 5
 700 452 l 5
 700 800 l 5
 1050 800 l 5
EndSplineSet
Validated: 1
EndChar

StartChar: ncaron
Encoding: 328 328 328
Width: 1150
VWidth: 0
Flags: HW
LayerCount: 2
Fore
SplineSet
700 452 m 5
 700 800 l 5
 1050 800 l 5
 1050 452 l 5
 700 452 l 5
0 102 m 5
 0 450 l 5
 700 450 l 5
 700 102 l 5
 700 102 103.365 102 0 102 c 5
0 452 m 5
 0 800 l 5
 350 800 l 5
 350 452 l 5
 0 452 l 5
EndSplineSet
Validated: 524289
EndChar

StartChar: rcaron
Encoding: 345 345 345
Width: 1150
VWidth: 0
Flags: HW
LayerCount: 2
Fore
SplineSet
350 102 m 5
 350 450 l 5
 700 450 l 5
 700 102 l 5
 350 102 l 5
0 452 m 5
 0 800 l 5
 1050 800 l 5
 1050 452 l 5
 0 452 l 5
EndSplineSet
Validated: 1
EndChar

StartChar: scaron
Encoding: 353 353 353
Width: 1150
VWidth: 0
Flags: HW
LayerCount: 2
Fore
SplineSet
350 452 m 5
 350 800 l 5
 1050 800 l 5
 1050 452 l 5
 350 452 l 5
0 102 m 5
 0 450 l 5
 350 450 l 5
 350 102 l 5
 0 102 l 5
EndSplineSet
Validated: 1
EndChar

StartChar: tcaron
Encoding: 357 357 357
Width: 1150
VWidth: 0
Flags: HW
LayerCount: 2
Fore
SplineSet
350 452 m 5
 350 800 l 5
 1050 800 l 5
 1050 452 l 5
 350 452 l 5
0 102 m 5
 0 450 l 5
 700 450 l 5
 700 102 l 5
 0 102 l 5
EndSplineSet
Validated: 1
EndChar

StartChar: uring
Encoding: 367 367 367
Width: 1150
VWidth: 0
Flags: HW
LayerCount: 2
Fore
SplineSet
1050 102 m 1
 350 102 l 1
 350 452 l 1
 0 452 l 1
 0 800 l 1
 350 800 l 1
 1050 800 l 1
 1050 102 l 1
EndSplineSet
EndChar

StartChar: zcaron
Encoding: 382 382 382
Width: 1150
VWidth: 0
Flags: HW
LayerCount: 2
Fore
SplineSet
350 452 m 5
 0 452 l 5
 0 800 l 5
 350 800 l 5
 350 452 l 5
1050 102 m 5
 946.636 102 350 102 350 102 c 5
 350 450 l 5
 1050 450 l 5
 1050 102 l 5
1050 452 m 5
 700 452 l 5
 700 800 l 5
 1050 800 l 5
 1050 452 l 5
EndSplineSet
Validated: 524289
EndChar
